<svg xmlns="http://www.w3.org/2000/svg" viewBox="0 0 800 360" role="img" aria-labelledby="title">
  <title id="title">lofi titlemark for dark backgrounds</title>
  <defs>
    <mask id="lofi-title-dark-cutout">
      <rect width="512" height="512" fill="white" />
      <path
        d="M183 184v146h124M183 330 91 455"
        fill="none"
        stroke="black"
        stroke-linecap="round"
        stroke-linejoin="round"
        stroke-width="38"
      />
    </mask>
  </defs>
  <g transform="translate(8 20) scale(.625)">
    <path
      d="M415 56C253 58 112 112 67 224c-32 80-21 173 24 231l47-49c57 29 135 21 197-20 52-34 80-93 80-160Z"
      fill="#d5f26a"
      mask="url(#lofi-title-dark-cutout)"
    />
  </g>
  <g transform="translate(375 58) scale(0.88321)" fill="#d5f26a" stroke="none">
    <g transform="translate(0.000000,274.000000) scale(0.100000,-0.100000)">
      <path d="M465 2305 c-22 -8 -41 -15 -42 -15 -1 0 -11 -15 -22 -34 -21 -33 -21 -39 -21 -910 0 -963 -3 -919 60 -951 40 -21 190 -21 230 0 63 32 60 -11 60 942 -1 957 2 909 -63 957 -36 27 -145 33 -202 11z"/>
      <path d="M1515 1786 c-475 -110 -713 -613 -493 -1039 60 -117 191 -247 302 -301 506 -243 1064 127 1033 685 -16 301 -233 569 -522 645 -85 22 -246 27 -320 10z m300 -365 c205 -101 278 -367 155 -561 -160 -251 -530 -230 -662 38 -47 95 -49 256 -5 341 103 196 324 274 512 182z"/>
    </g>
  </g>
  <g transform="translate(375 58) scale(0.88321)" fill="#f3faf6" stroke="none">
    <g transform="translate(0.000000,274.000000) scale(0.100000,-0.100000)">
      <path d="M3092 2309 c-223 -39 -383 -233 -399 -484 -7 -104 -8 -105 -89 -105 -92 0 -108 -22 -112 -148 -5 -124 11 -152 87 -152 27 0 63 -3 80 -6 l31 -6 0 -469 c0 -279 4 -478 10 -493 32 -85 277 -95 330 -14 12 20 14 95 11 494 -2 327 0 474 8 478 6 4 66 8 133 10 177 4 188 13 188 161 0 75 -3 87 -26 114 l-26 31 -129 0 c-150 0 -149 -1 -140 100 12 126 60 169 202 179 122 9 124 11 124 151 0 148 -12 163 -142 166 -48 2 -112 -1 -141 -7z"/>
      <path d="M3685 2294 c-136 -50 -185 -226 -94 -337 129 -156 380 -72 381 127 1 157 -143 263 -287 210z"/>
      <path d="M3609 1701 l-29 -29 0 -611 0 -611 29 -32 c29 -33 31 -33 129 -36 80 -3 108 0 137 14 67 32 66 15 63 680 l-3 596 -33 29 c-32 28 -34 29 -148 29 -114 0 -116 0 -145 -29z"/>
    </g>
  </g>
</svg>
